<?xml version="1.0" encoding="UTF-8"?>
<!-- Generator: Adobe Illustrator 24.0.3, SVG Export Plug-In . SVG Version: 6.00 Build 0)  -->
<svg version="1.1" id="Camada_1" xmlns="http://www.w3.org/2000/svg" xmlns:xlink="http://www.w3.org/1999/xlink" x="0px" y="0px" viewBox="0 0 904.4 548" style="enable-background:new 0 0 904.4 548;" xml:space="preserve">
<style type="text/css">
	.st0{fill:#FFFFFF;}
	.st1{fill:#FFCC00;}
</style>
<g>
	<g>
		<g>
			<g>
				<g>
					<path class="st0" d="M634.5,185.1l9.2-2.1c2.8-0.7,5.6,1.4,6.4,4.2l18.3,93.1c0.7,2.8,3.5,4.2,6.4,4.2l21.2-4.2       c2.8-0.7,5.6,1.4,6.4,4.2l1.4,7.1c0.7,2.8-1.4,5.6-4.2,6.4l-40.2,7.8c-2.8,0.7-5.6-1.4-6.4-4.2l-21.9-110.8       C629.5,188.6,631.6,185.8,634.5,185.1z"/>
					<path class="st0" d="M691.6,204.1c-3.5-19.1,4.2-32.5,22.6-36c18.3-3.5,31,4.9,34.6,24.7l12.7,62.8c3.5,19.1-4.2,32.5-22.6,36       c-18.3,3.5-31-4.9-34.6-24.7L691.6,204.1z M723.4,264.1c1.4,8.5,6.4,11.3,12,9.9c6.4-1.4,9.2-4.9,7.8-14.1L730.5,195       c-1.4-8.5-6.4-11.3-12-9.9c-6.4,1.4-9.2,4.9-7.8,14.1L723.4,264.1z"/>
					<path class="st0" d="M817.9,177.3l0.7,4.2c2.1,9.2,1.4,16.2-2.1,21.9c-1.4,2.8-0.7,5.6,1.4,7.1c7.1,3.5,10.6,10.6,12.7,20.5       l2.1,9.9c3.5,18.3-4.2,30.3-23.3,34.6l-24.7,4.9c-2.8,0.7-5.6-1.4-6.4-4.2l-21.9-110.8c-0.7-2.8,1.4-5.6,4.2-6.4l23.3-4.9       C803.8,151.9,814.4,159,817.9,177.3z M779.1,179.4l4.2,21.9c0.7,2.8,3.5,4.2,6.4,4.2l2.1-0.7c7.1-1.4,10.6-5.6,8.5-14.8       l-1.4-7.1c-1.4-8.5-5.6-12-12-10.6l-4.2,0.7C780.5,174.5,778.4,176.6,779.1,179.4z M789,228.8l5.6,26.8       c0.7,2.8,3.5,4.2,6.4,4.2l5.6-1.4c6.4-1.4,9.2-4.9,7.8-14.1l-2.1-10.6c-2.1-11.3-6.4-14.1-14.8-12l-3.5,0.7       C790.4,223.2,788.3,226,789,228.8z"/>
					<path class="st0" d="M829.9,176.6c-3.5-19.1,4.2-32.5,22.6-36c18.3-3.5,31,4.9,34.6,24.7l12.7,62.8c3.5,19.1-4.2,32.5-22.6,36       c-18.3,3.5-31-4.9-34.6-24.7L829.9,176.6z M861.7,236.6c1.4,8.5,6.4,11.3,12,9.9c6.4-1.4,9.2-4.9,7.8-14.1l-12.7-64.9       c-1.4-8.5-6.4-11.3-12-9.9c-6.4,1.4-9.2,4.9-7.8,14.1L861.7,236.6z"/>
				</g>
				<g>
					<path class="st0" d="M664.1,389h16.2c2.8,0,4.9,2.1,4.9,4.9v8.5c0,2.8-2.1,4.9-4.9,4.9h-16.2c-2.8,0-4.9,2.1-4.9,4.9v43       c0,2.8-2.1,4.9-4.9,4.9h-9.9c-2.8,0-4.9-2.1-4.9-4.9V336.8c0-2.8,2.1-4.9,4.9-4.9h43c2.8,0,4.9,2.1,4.9,4.9v8.5       c0,2.8-2.1,4.9-4.9,4.9h-23.3c-2.8,0-4.9,2.1-4.9,4.9V384C659.2,386.2,661.3,389,664.1,389z"/>
					<path class="st0" d="M727.6,385.5h17.6c2.8,0,4.9,2.1,4.9,4.9v8.5c0,2.8-2.1,4.9-4.9,4.9h-17.6c-2.8,0-4.9,2.1-4.9,4.9V437       c0,2.8,2.1,4.9,4.9,4.9h24.7c2.8,0,4.9,2.1,4.9,4.9v8.5c0,2.8-2.1,4.9-4.9,4.9h-45.2c-2.8,0-4.9-2.1-4.9-4.9V336.8       c0-2.8,2.1-4.9,4.9-4.9h45.2c2.8,0,4.9,2.1,4.9,4.9v8.5c0,2.8-2.1,4.9-4.9,4.9h-24.7c-2.8,0-4.9,2.1-4.9,4.9v25.4       C722.7,383.3,724.8,385.5,727.6,385.5z"/>
					<path class="st0" d="M796.8,330.4c19.8,0,29.6,12,29.6,32.5v3.5h-14.1c-2.8,0-4.9-2.1-4.9-4.9l0,0c0-9.2-3.5-12.7-9.9-12.7       s-9.9,3.5-9.9,12.7c0,26.1,39.5,31,39.5,67.7c0,20.5-10.6,32.5-30.3,32.5c-19.8,0-30.3-12-30.3-32.5v-2.8       c0-2.8,2.1-4.9,4.9-4.9h9.2c2.8,0,4.9,2.1,4.9,4.9v4.2c0,9.2,4.2,12.7,10.6,12.7c6.4,0,10.6-3.5,10.6-12.7       c0-26.1-39.5-31-39.5-67.7C767.1,341.7,777,330.4,796.8,330.4z"/>
					<path class="st0" d="M837,331.8h52.2c2.8,0,4.9,2.1,4.9,4.9v8.5c0,2.8-2.1,4.9-4.9,4.9h-11.3c-2.8,0-4.9,2.1-4.9,4.9v100.2       c0,2.8-2.1,4.9-4.9,4.9h-9.9c-2.8,0-4.9-2.1-4.9-4.9V355.1c0-2.8-2.1-4.9-4.9-4.9H837c-2.8,0-4.9-2.1-4.9-4.9v-8.5       C832,333.9,834.9,331.8,837,331.8z"/>
				</g>
			</g>
		</g>
		<g>
			<g>
				<path class="st1" d="M551.2,202C538.5,142,34.7-8.3,17.1,2.3c-21.9,13.4-21.9,446,8.4,460.8c7.8,3.5,48-7.8,103-28.2      c2.1-3.5,4.2-7.1,6.4-10.6c4.9,0.7,9.9,2.1,12.7,3.5c13.4-4.9,27.5-10.6,41.6-16.2c2.1-2.1,5.6-4.2,9.2-6.4      c1.4,0.7,2.8,0.7,4.9,0.7c36-14.8,74.8-31.8,112.2-49.4c3.5-3.5,6.4-6.4,8.5-9.9c2.1-1.4,6.4-2.8,12.7,0      c10.6-4.9,21.2-9.9,31.8-15.5c3.5-4.9,6.4-12.7,8.5-21.2c2.1,5.6,4.9,10.6,8.5,12.7C481.3,274,556.8,226,551.2,202z"/>
				<path class="st0" d="M146.2,532.9c-2.1,9.2,29.6,13.4,24.7,5.6c-3.5-5.6-5.6-52.2-5.6-75.5c-7.1,1.4-13.4,2.8-20.5,4.2      C146.2,492,147.6,527.3,146.2,532.9z"/>
				<path class="st0" d="M248.5,511.1c3.5,0.7,16.9,0,14.8-2.1c-1.4-2.1-15.5-44.5-20.5-64.2c-4.9,2.1-9.2,3.5-14.1,5.6      C235.1,473.7,246.4,510.3,248.5,511.1z"/>
				<path class="st0" d="M321.9,431.3c0.7,2.8,2.1,7.8,4.2,11.3c2.8,3.5,40.9,89.6,48,89.6s14.8,0.7,13.4-9.2      c-1.4-9.2-45.2-69.1-47.3-85.4c-2.1-4.9-6.4-21.9-12-43c-5.6,5.6-10.6,10.6-16.2,16.2C317.6,422.1,321.2,430.6,321.9,431.3z"/>
				<path class="st0" d="M408,359.3c17.6,19.8,32.5,37.4,31.8,36c-1.4-2.1,4.2,6.4,9.2,13.4c61.4,74.1,67.7,73.4,71.3,70.6      s4.9-9.9,0-11.3s-60.7-65.6-64.2-69.1s-3.5-8.5-7.8-10.6c-2.1-1.4-17.6-23.3-32.5-45.2C413.6,348.8,410.8,353.7,408,359.3z"/>
				<path class="st0" d="M450.3,163.2c2.8-3.5,4.9-16.9,0-28.9l0,0c0,0,21.9-48,14.8-49.4c-14.8-2.8-35.3,21.9-39.5,28.2      c-3.5-0.7-7.1-1.4-11.3-1.4c-2.8-7.1-28.9-49.4-37.4-45.2c-7.8,4.2-4.9,40.2-1.4,50.8c-52.9,14.8-75.5,19.1-81.1,18.3      c-5.6-0.7-28.9,14.8-51.5,12.7s-96.7-10.6-112.2-8.5c-15.5,1.4-60.7,67-67,108S35.5,313.4,39,317.7c2.8,4.2,38.8,13.4,78.3-45.9      c7.8,27.5,44.5,64.9,38.1,74.8c-7.8,12-31.8,58.6-32.5,63.5c0,2.1,2.1,12,4.9,24.7c6.4-2.1,12.7-4.9,19.1-7.1      c-1.4-7.8-2.1-13.4-2.1-13.4c1.4-2.1,50.1-70.6,49.4-78.3c0-1.4,0-6.4,0-14.8c3.5,3.5,18.3,16.2,17.6,19.8      c-0.7,3.5-26.8,50.1-27.5,53.6c0,0.7,1.4,7.8,3.5,16.2c4.9-2.1,9.2-3.5,14.1-5.6c-1.4-4.9-2.1-8.5-1.4-9.2      c1.4-5.6,44.5-49.4,43.7-58.6c-0.7-7.8,4.9-70.6-2.8-86.1c15.5,1.4,31.8,3.5,48,4.2c6.4,5.6,15.5,13.4,17.6,16.2      c2.1,3.5,6.4,53.6,8.5,84c7.1-3.5,14.1-6.4,21.2-9.9c3.5-33.2,8.5-75.5,9.9-93.1c2.8-0.7,5.6-1.4,7.8-2.1      c5.6,11.3,10.6,48.7,13.4,80.4c5.6-2.8,11.3-5.6,16.9-8.5c0.7-16.2,1.4-32.5,2.1-43c0.7-17.6-1.4-34.6-2.8-45.2      c0-2.1-0.7-5.6-2.1-9.9l0,0l0,0c-2.8-13.4-8.5-31.8,9.9-41.6c2.8-1.4,16.2,0,23.3,7.8c10.6,10.6,23.3,18.3,38.8,10.6      C458.1,199.2,443.2,172.4,450.3,163.2z"/>
			</g>
		</g>
	</g>
</g>
</svg>