<svg xmlns="http://www.w3.org/2000/svg" viewBox="0 0 274.771 71.473">
  <defs>
    <style>
      .cls-1 {
        fill: #42bccd;
      }

      .cls-1, .cls-2, .cls-3, .cls-4 {
        fill-rule: evenodd;
      }

      .cls-2 {
        fill: #97bf3d;
      }

      .cls-3 {
        fill: #ea5b0c;
      }

      .cls-4 {
        fill: #662483;
      }
    </style>
  </defs>
  <g id="Group_25" data-name="Group 25" transform="translate(-0.004 -0.048)">
    <g id="Group_25-2" data-name="Group 25" transform="translate(0.004 0.049)">
      <path id="Path_33" data-name="Path 33" class="cls-1" d="M67.612,67.654,64.387,66.6A15.722,15.722,0,0,1,62.9,69.453a24.678,24.678,0,0,1-3.6,4.031c-12.03,7.938-21.952-1.922-21.952-1.922-.62-.5-.372-.248-.372-.248L35.8,72.367c1.55,1.55,6.387,6.387,11.472,7.317A16.039,16.039,0,0,0,59.3,77.018a26.648,26.648,0,0,0,8.31-9.364" transform="translate(-13.602 -25.33)"/>
      <path id="Path_34" data-name="Path 34" class="cls-2" d="M89.364,57.638c.186-2.791.186-4.589-1.054-11.038l-2.729.93a29.079,29.079,0,0,1-.372,9.364,26.269,26.269,0,0,1-3.349,8.31,22.94,22.94,0,0,1-7.379,7.627A82.347,82.347,0,0,1,65.8,76.056l.806,3.473s6.449-.62,10.728-3.1c8.062-4.651,11.658-11.72,12.03-18.79" transform="translate(-24.999 -17.733)"/>
      <path id="Path_35" data-name="Path 35" class="cls-3" d="M47.148,81.54a43.047,43.047,0,0,1-8.186.31A22.559,22.559,0,0,1,25.94,75.029c-5.023-4.589-6.7-13.829-6.7-13.829l-2.542.5a27.681,27.681,0,0,0,1.922,9.8c3.721,8.5,8.93,11.41,12.836,12.836,7.938,2.915,16.557.744,16.557.744Z" transform="translate(-6.347 -23.279)"/>
      <path id="Path_36" data-name="Path 36" class="cls-3" d="M75.588,43.134C75.03,38.3,72.24,29.864,62.38,26.763a27.089,27.089,0,0,0-10.48-.868l.62,3.349a25.432,25.432,0,0,1,6.635-.31,17.3,17.3,0,0,1,12.774,9.3C74.6,43.878,70.5,51.072,70.5,51.072l3.225,1.054c1.8-2.977,1.984-7.876,1.86-8.992" transform="translate(-19.718 -9.802)"/>
      <path id="Path_37" data-name="Path 37" class="cls-1" d="M45.139,16.406l.62-4.4c-9.55-1.674-15.193,1.3-19.162,4.155-2.356,1.674-7.937,7.069-9.86,16.619a29.9,29.9,0,0,0-.31,10.046l2.542-.5a21.185,21.185,0,0,1,3.411-15.875c4.775-6.635,9.8-9.3,13.891-10.108a21.67,21.67,0,0,1,8.868.062" transform="translate(-6.136 -4.406)"/>
      <path id="Path_38" data-name="Path 38" class="cls-4" d="M81.5,21.85C76.791,16.331,68.915,12.8,63.52,12.3l-.62,4.4c4.279.744,8.992,2.046,12.836,5.023C83.178,27.617,84.48,34.5,84.48,34.5l2.729-.93A23.016,23.016,0,0,0,81.5,21.85" transform="translate(-23.897 -4.703)"/>
      <path id="Path_39" data-name="Path 39" class="cls-1" d="M76.151,93.987,72.12,90.7c-5.147,5.085-10.666,8.124-16.185,9.3-13.891,2.915-23.875-2.294-23.875-2.294L30.2,100.25c7.193,4.279,19.41,7.565,30.882,4.527,7.317-1.922,15.069-10.79,15.069-10.79" transform="translate(-11.475 -34.486)"/>
      <path id="Path_40" data-name="Path 40" class="cls-2" d="M47.48.639A48.348,48.348,0,0,0,32.908.515c-9.178.744-17.053,6.2-17.053,6.2C9.157,11.677,4.072,22.4,3.7,24.327l5.519.868C16.6,3.367,33.59,3.305,33.59,3.305A37.753,37.753,0,0,1,46.054,5.662Z" transform="translate(-1.408 -0.049)"/>
      <path id="Path_41" data-name="Path 41" class="cls-3" d="M102.076,34.3c0-5.705,1.054-26.231-28.649-33.3L72,6.023a35.492,35.492,0,0,1,11.038,5.333c4.031,3.039,18.479,13.209,12.712,31.564a37.682,37.682,0,0,1-7.813,13.643l4.031,3.287C100.9,48.191,102.076,34.3,102.076,34.3" transform="translate(-27.354 -0.41)"/>
      <path id="Path_42" data-name="Path 42" class="cls-4" d="M9.179,68.073C1.428,54.679,7.815,40.168,7.815,40.168L2.3,39.3C.5,45.811-2.665,53.811,4.342,66.275,8,72.786,13.086,77.189,18.729,80.786l1.86-2.542c-.062-.062-8.744-5.581-11.41-10.17" transform="translate(-0.004 -14.96)"/>
      <path id="Path_43" data-name="Path 43" class="cls-2" d="M30.482,50.061c-.744-1.984-1.55-5.519.186-10.852a13.974,13.974,0,0,1,6.263-7.441,40.708,40.708,0,0,1,6.449-2.418L42.76,26a23.316,23.316,0,0,0-8.62,4.217A16.027,16.027,0,0,0,28.311,38.9a25.433,25.433,0,0,0-.248,8.62,15.185,15.185,0,0,0,4.775,9.426l1.24-.992a22.617,22.617,0,0,1-3.6-5.891" transform="translate(-10.578 -9.907)"/>
    </g>
    <path id="Path_44" data-name="Path 44" d="M161.463,61.177c-.806,3.535-3.783,5.085-7.317,5.085-6.2,0-10.046-3.163-10.046-9.24a19.012,19.012,0,0,1,.5-4.155L151.045,21.8h2.418c4.155,0,6.2,1.488,6.2,4.837a11.155,11.155,0,0,1-.31,2.729L154.828,51.69a11.438,11.438,0,0,0-.248,2.418c0,3.287,2.667,3.969,5.271,3.969h2.356Z" transform="translate(-54.739 -8.263)"/>
    <path id="Path_45" data-name="Path 45" d="M223.238,41.534l-5.209,24.8H214.37c-3.225,0-5.147-.93-5.147-3.845a9.051,9.051,0,0,1,.31-2.48L213.5,41.472a21.333,21.333,0,0,0,.558-4.217c0-5.457-4.093-6.635-7.317-6.635-7.5,0-9.55,6.139-10.6,10.728L190.806,66.4h-3.473c-3.349,0-5.333-1.3-5.333-4.465a8.355,8.355,0,0,1,.248-2.046l4.031-18.6C188.759,29.441,195.891,22,207.735,22c8.31,0,16.123,5.333,16.123,14.511a25.212,25.212,0,0,1-.62,5.023" transform="translate(-69.137 -8.339)"/>
    <path id="Path_46" data-name="Path 46" d="M273.269,48.107H268v.806c0,8.558,6.573,9.24,10.418,9.24,5.581,0,9.55-1.178,13.022-3.6h.31l-.5,2.729c-.992,5.705-6.821,8.992-16.123,8.992-5.891,0-16.929-3.225-16.929-18.045v-.31C258.262,41.72,263.285,22,282.385,22c4.651,0,15.131,2.977,15.131,13.146,0,8.93-5.829,12.96-24.247,12.96M281.082,30c-7.5,0-10.976,6.139-11.906,9.55l-.372,1.488h5.023a62.38,62.38,0,0,0,8.744-.558c3.473-.558,5.705-2.046,5.705-4.961,0-4.217-3.659-5.519-7.193-5.519" transform="translate(-98.084 -8.339)"/>
    <path id="Path_47" data-name="Path 47" d="M420.743,31.464l-.806,3.473h-.372c-1.3-2.729-6.015-4.093-9.116-4.093-13.457,0-15.255,12.464-15.255,15.813,0,8.62,6.015,10.728,9.8,10.728a17.631,17.631,0,0,0,10.48-3.039h.5L415.1,58c-.93,4.093-5.395,8.124-13.456,8.124-2.6,0-16.743-1.86-16.743-18.79,0-4.961,4.093-25.239,25.487-25.239,4.093,0,10.6,2.356,10.6,7.689-.124.5-.124.992-.248,1.674" transform="translate(-146.215 -8.377)"/>
    <path id="Path_48" data-name="Path 48" d="M359.551,31.4l-.62,2.915h-.248c-2.17-2.6-7.069-4.093-11.286-4.093-3.6,0-9.3.558-9.426,5.333,0,2.294,1.86,3.225,8.061,5.023,5.953,1.736,10.418,5.271,10.418,10.6,0,7.689-6.2,15.131-19.348,15.131-6.573,0-12.4-2.791-12.4-7.379a10.613,10.613,0,0,1,.186-2.356l.682-2.853h.186c2.419,2.729,7.752,4.4,12.278,4.4,3.659,0,8.558-.372,8.558-5.829,0-2.791-2.915-3.783-8.992-5.705-5.705-1.86-9.426-4.527-9.426-9.86s4.4-14.635,19.41-14.635c5.891,0,12.154,2.17,12.154,7.193a6.217,6.217,0,0,1-.186,2.108" transform="translate(-123.346 -8.377)"/>
  </g>
</svg>