<svg width="249" height="45" viewBox="0 0 249 45" fill="none" xmlns="http://www.w3.org/2000/svg">
<path d="M74.0423 27.2997C72.688 26.9117 71.6346 26.3414 70.8743 25.5811C70.114 24.8208 69.7339 23.6803 69.7339 22.1677C69.7339 20.3382 70.3912 18.9047 71.7059 17.8672C73.0206 16.8297 74.8105 16.3149 77.0756 16.3149C78.018 16.3149 78.9447 16.402 79.8634 16.5683C80.7821 16.7346 81.7087 16.9881 82.6512 17.3286C82.6036 17.9543 82.4848 18.6037 82.2869 19.2848C82.0968 19.958 81.8671 20.552 81.5978 21.0589C81.0197 20.8213 80.3782 20.6074 79.6812 20.4253C78.9843 20.2431 78.2477 20.156 77.4795 20.156C76.6558 20.156 76.0222 20.2827 75.5629 20.5362C75.1035 20.7896 74.8739 21.1935 74.8739 21.7479C74.8739 22.2785 75.0402 22.6508 75.3649 22.8725C75.6896 23.0864 76.1569 23.2923 76.7588 23.4903L78.818 24.108C79.4911 24.2981 80.101 24.5357 80.6474 24.8129C81.186 25.0901 81.6533 25.4306 82.0413 25.8425C82.4294 26.2543 82.7304 26.7612 82.9442 27.3631C83.158 27.965 83.2689 28.7015 83.2689 29.5648C83.2689 30.4597 83.0788 31.2913 82.7066 32.0596C82.3344 32.8278 81.7879 33.501 81.083 34.0633C80.3702 34.6335 79.507 35.077 78.5012 35.4017C77.4874 35.7264 76.347 35.8928 75.0639 35.8928C74.4858 35.8928 73.9552 35.8769 73.4721 35.8373C72.9889 35.7977 72.5217 35.7185 72.0702 35.6393C71.6267 35.5522 71.1832 35.4493 70.7476 35.3305C70.312 35.2117 69.8448 35.0533 69.3379 34.8632C69.3854 34.2138 69.5042 33.5564 69.6784 32.8911C69.8606 32.2259 70.0903 31.5844 70.3833 30.9587C71.1753 31.2755 71.9356 31.5052 72.6405 31.6636C73.3533 31.822 74.0898 31.9012 74.8659 31.9012C75.2065 31.9012 75.5708 31.8695 75.9668 31.814C76.3628 31.7507 76.735 31.6477 77.0677 31.4893C77.4082 31.3309 77.6854 31.125 77.9151 30.8716C78.1448 30.6181 78.2556 30.2855 78.2556 29.8737C78.2556 29.2955 78.0814 28.8758 77.7329 28.6303C77.3845 28.3768 76.8934 28.1551 76.2678 27.965L74.0423 27.2997Z" fill="black"/>
<path d="M86.738 9.00485C87.5538 8.86229 88.4012 8.79102 89.2724 8.79102C90.1436 8.79102 90.9989 8.86229 91.8384 9.00485V35.4334C90.991 35.576 90.1356 35.6472 89.2724 35.6472C88.4012 35.6472 87.5617 35.576 86.738 35.4334V9.00485ZM92.5591 25.6365L97.1843 16.7425C98.1268 16.6 99.0772 16.5287 100.043 16.5287C100.962 16.5287 101.849 16.6 102.72 16.7425L97.9446 25.3831L103.512 35.4334C102.522 35.576 101.572 35.6472 100.653 35.6472C99.8058 35.6472 98.9188 35.576 97.9763 35.4334L92.5591 25.6365Z" fill="black"/>
<path d="M104.233 16.7425C104.787 16.6237 105.278 16.5525 105.698 16.5445C106.118 16.5287 106.514 16.5287 106.87 16.5287C107.353 16.5287 107.844 16.5445 108.351 16.5683C108.858 16.5921 109.317 16.6554 109.721 16.7505L113.626 33.0574L118.037 16.7505C118.829 16.6079 119.653 16.5366 120.492 16.5366C120.857 16.5366 121.237 16.5445 121.649 16.5525C122.06 16.5683 122.567 16.6317 123.169 16.7505L116.192 39.8527C115.899 40.7714 115.558 41.5238 115.162 42.1336C114.766 42.7355 114.315 43.2028 113.808 43.5433C113.301 43.8839 112.739 44.1136 112.105 44.2482C111.479 44.3828 110.806 44.4462 110.078 44.4462C109.404 44.4462 108.795 44.4066 108.248 44.3195C107.702 44.2324 107.171 44.1215 106.64 43.9789C106.617 43.8601 106.601 43.7572 106.601 43.6701C106.601 43.5829 106.601 43.4958 106.601 43.4008C106.601 42.8226 106.664 42.2762 106.799 41.7534C106.933 41.2307 107.092 40.7318 107.29 40.2566C107.504 40.3279 107.797 40.3912 108.161 40.4546C108.525 40.518 108.882 40.5417 109.246 40.5417C109.531 40.5417 109.824 40.5259 110.117 40.4863C110.41 40.4467 110.687 40.3437 110.965 40.1616C111.242 39.9794 111.503 39.6943 111.741 39.3141C111.978 38.9261 112.2 38.3875 112.39 37.6906L113.008 35.4492C112.747 35.473 112.446 35.4888 112.121 35.5047C111.796 35.5205 111.464 35.5205 111.123 35.5205C110.862 35.5205 110.6 35.5205 110.363 35.5205C110.117 35.5205 109.903 35.4968 109.713 35.4492L104.233 16.7425Z" fill="black"/>
<path d="M125.933 9.00484C126.345 8.93356 126.765 8.88604 127.2 8.86229C127.636 8.83853 128.056 8.82269 128.468 8.82269C128.879 8.82269 129.299 8.83853 129.735 8.86229C130.17 8.88604 130.606 8.93356 131.034 9.00484V18.9443C131.2 18.7304 131.422 18.4691 131.699 18.1681C131.976 17.8672 132.317 17.5741 132.728 17.2969C133.14 17.0197 133.631 16.7821 134.209 16.5921C134.788 16.402 135.453 16.307 136.197 16.307C138.272 16.307 139.84 16.8851 140.918 18.0414C141.987 19.1977 142.525 21.0193 142.525 23.4982V35.4651C142.09 35.5364 141.654 35.5839 141.226 35.6076C140.791 35.6314 140.371 35.6472 139.959 35.6472C139.547 35.6472 139.128 35.6314 138.692 35.6076C138.256 35.5839 137.821 35.5364 137.393 35.4651V24.8762C137.393 23.5774 137.187 22.5716 136.775 21.8746C136.364 21.1777 135.667 20.8292 134.677 20.8292C134.265 20.8292 133.845 20.8925 133.409 21.0113C132.974 21.1301 132.586 21.3677 132.237 21.7162C131.889 22.0647 131.596 22.5557 131.366 23.1814C131.136 23.8071 131.026 24.6307 131.026 25.6365V35.473C130.59 35.5443 130.154 35.5918 129.727 35.6156C129.299 35.6393 128.871 35.6552 128.46 35.6552C128.048 35.6552 127.636 35.6393 127.208 35.6156C126.788 35.5918 126.361 35.5443 125.925 35.473V9.00484H125.933Z" fill="black"/>
<path d="M146.865 16.7425C147.736 16.6 148.592 16.5287 149.431 16.5287C150.279 16.5287 151.134 16.6 151.997 16.7425V26.6503C151.997 27.6403 152.076 28.456 152.235 29.0896C152.393 29.7311 152.631 30.238 152.955 30.6102C153.28 30.9824 153.684 31.2517 154.167 31.4022C154.65 31.5606 155.213 31.6398 155.87 31.6398C156.757 31.6398 157.509 31.5527 158.111 31.3864V16.7425C158.983 16.6 159.822 16.5287 160.646 16.5287C161.493 16.5287 162.348 16.6 163.212 16.7425V34.7127C162.436 34.9741 161.422 35.2354 160.155 35.4888C158.887 35.7423 157.573 35.869 156.195 35.869C154.967 35.869 153.787 35.774 152.655 35.576C151.522 35.3859 150.524 34.9741 149.669 34.3484C148.813 33.7227 148.132 32.804 147.625 31.6002C147.119 30.3964 146.865 28.7886 146.865 26.7928V16.7425Z" fill="black"/>
<path d="M167.798 9.00485C168.669 8.86229 169.508 8.79102 170.332 8.79102C171.172 8.79102 172.035 8.86229 172.898 9.00485V18.5483C173.262 17.8988 173.864 17.3603 174.704 16.9405C175.551 16.5208 176.509 16.307 177.595 16.307C178.68 16.307 179.685 16.497 180.612 16.8851C181.539 17.2732 182.339 17.8593 183.02 18.6354C183.693 19.4195 184.223 20.4015 184.612 21.5816C185 22.7616 185.19 24.1635 185.19 25.7791C185.19 27.3472 184.952 28.7491 184.469 29.9925C183.986 31.2359 183.289 32.2892 182.37 33.1525C181.451 34.0237 180.335 34.6889 179.004 35.1562C177.682 35.6235 176.185 35.8611 174.522 35.8611C173.991 35.8611 173.429 35.8373 172.843 35.7898C172.249 35.7423 171.655 35.6789 171.053 35.5918C170.451 35.5047 169.873 35.4017 169.318 35.2671C168.764 35.1325 168.257 34.982 167.798 34.8157V9.00485ZM172.898 31.3864C173.183 31.4814 173.492 31.5448 173.817 31.5685C174.141 31.5923 174.474 31.6081 174.815 31.6081C176.383 31.6081 177.61 31.1488 178.505 30.238C179.4 29.3193 179.844 27.8858 179.844 25.9375C179.844 24.2031 179.567 22.8804 179.012 21.9776C178.458 21.0747 177.515 20.6233 176.193 20.6233C175.226 20.6233 174.442 20.9401 173.825 21.5816C173.207 22.2231 172.906 23.2289 172.906 24.599V31.3864H172.898Z" fill="black"/>
<path d="M189.245 35.4334C189.102 34.5385 189.031 33.6594 189.031 32.7961C189.031 31.9249 189.102 31.0379 189.245 30.1192C190.132 29.9766 191.019 29.9053 191.882 29.9053C192.753 29.9053 193.64 29.9766 194.559 30.1192C194.701 31.0379 194.773 31.917 194.773 32.7565C194.773 33.6514 194.701 34.5385 194.559 35.4334C193.64 35.576 192.761 35.6472 191.922 35.6472C191.027 35.6552 190.132 35.5839 189.245 35.4334Z" fill="#49B6BB"/>
<path d="M199.58 9.00485C200.451 8.86229 201.291 8.79101 202.114 8.79101C202.962 8.79101 203.817 8.86229 204.68 9.00485V18.5483C205.045 17.8988 205.647 17.3603 206.486 16.9405C207.326 16.5208 208.292 16.307 209.377 16.307C210.462 16.307 211.468 16.497 212.394 16.8851C213.321 17.2732 214.121 17.8592 214.802 18.6354C215.475 19.4195 216.006 20.4015 216.394 21.5816C216.782 22.7616 216.972 24.1635 216.972 25.7791C216.972 27.3472 216.727 28.749 216.251 29.9925C215.768 31.2359 215.071 32.2892 214.153 33.1525C213.234 34.0237 212.117 34.6889 210.787 35.1562C209.464 35.6235 207.967 35.8611 206.304 35.8611C205.773 35.8611 205.211 35.8373 204.625 35.7898C204.031 35.7423 203.437 35.6789 202.835 35.5918C202.233 35.5047 201.655 35.4017 201.101 35.2671C200.546 35.1325 200.039 34.982 199.58 34.8157V9.00485ZM204.68 31.3864C204.974 31.4814 205.274 31.5448 205.599 31.5685C205.924 31.5923 206.257 31.6081 206.597 31.6081C208.165 31.6081 209.393 31.1488 210.288 30.238C211.183 29.3193 211.626 27.8858 211.626 25.9375C211.626 24.203 211.349 22.8804 210.795 21.9776C210.24 21.0747 209.298 20.6233 207.975 20.6233C207.009 20.6233 206.225 20.9401 205.607 21.5816C204.989 22.2231 204.688 23.2289 204.688 24.599V31.3864H204.68Z" fill="#49B6BB"/>
<path d="M222.001 20.647H219.577C219.506 20.3302 219.45 20.0055 219.411 19.6491C219.371 19.3007 219.355 18.968 219.355 18.6512C219.355 18.0018 219.427 17.3603 219.569 16.7346H227.014V35.4255C226.143 35.5681 225.303 35.6393 224.48 35.6393C223.688 35.6393 222.848 35.5681 221.985 35.4255V20.647H222.001ZM221.24 13.5984C221.098 12.7826 221.027 11.9748 221.027 11.1749C221.027 10.4067 221.098 9.59884 221.24 8.75142C221.652 8.68014 222.088 8.6247 222.563 8.5851C223.03 8.5455 223.458 8.52966 223.846 8.52966C224.258 8.52966 224.701 8.5455 225.184 8.5851C225.668 8.6247 226.111 8.67222 226.523 8.75142C226.594 9.16325 226.642 9.56716 226.665 9.96316C226.689 10.3591 226.705 10.7631 226.705 11.1749C226.705 11.563 226.689 11.959 226.665 12.3708C226.642 12.7826 226.594 13.1945 226.523 13.5984C226.111 13.6696 225.675 13.7172 225.2 13.7409C224.733 13.7647 224.289 13.7805 223.878 13.7805C223.49 13.7805 223.054 13.7647 222.579 13.7409C222.096 13.7172 221.652 13.6696 221.24 13.5984Z" fill="#49B6BB"/>
<path d="M240.003 35.869C238.483 35.869 237.168 35.6235 236.043 35.1246C234.919 34.6335 233.992 33.9445 233.255 33.0654C232.519 32.1863 231.964 31.1567 231.592 29.9767C231.22 28.7966 231.03 27.5136 231.03 26.1434C231.03 24.7733 231.22 23.4824 231.592 22.2786C231.964 21.0747 232.519 20.0293 233.255 19.1502C233.992 18.2711 234.919 17.5742 236.043 17.0673C237.168 16.5604 238.483 16.307 240.003 16.307C241.524 16.307 242.846 16.5604 243.979 17.0673C245.111 17.5742 246.054 18.2632 246.798 19.1502C247.543 20.0293 248.097 21.0747 248.462 22.2786C248.826 23.4824 249 24.7733 249 26.1434C249 27.5136 248.818 28.7966 248.462 29.9767C248.097 31.1567 247.543 32.1863 246.798 33.0654C246.054 33.9445 245.111 34.6335 243.979 35.1246C242.846 35.6235 241.524 35.869 240.003 35.869ZM240.003 31.9645C241.349 31.9645 242.324 31.4656 242.918 30.4677C243.512 29.4698 243.805 28.0284 243.805 26.1434C243.805 24.2664 243.512 22.825 242.918 21.8192C242.324 20.8213 241.357 20.3223 240.003 20.3223C238.681 20.3223 237.722 20.8213 237.128 21.8192C236.534 22.8171 236.241 24.2585 236.241 26.1434C236.241 28.0204 236.534 29.4619 237.128 30.4677C237.722 31.4656 238.681 31.9645 240.003 31.9645Z" fill="#49B6BB"/>
<path d="M28.9629 22.0489C27.9492 22.0489 27.1493 21.1143 27.3631 20.0689C27.5215 19.3007 28.2422 18.7859 29.0263 18.7859H47.3845C49.6813 18.7859 51.3999 16.6396 50.8455 14.4141C48.7863 6.12997 41.302 0 32.3764 0C25.8108 0 20.0214 3.32634 16.6 8.37921C16.0694 9.15535 16.6475 10.2087 17.59 10.2087H24.7258C25.6207 10.2087 26.3573 10.9452 26.3573 11.8402C26.3573 12.7351 25.6207 13.4717 24.7258 13.4717H7.34963C6.55764 13.4717 5.78149 13.7409 5.15583 14.232C2.01956 16.6713 0 20.4807 0 24.7575V24.7812C0 26.191 1.1563 27.3473 2.57395 27.3473H35.6473C36.4313 27.3473 37.152 27.87 37.3104 28.6303C37.5322 29.6757 36.7244 30.6102 35.7106 30.6102H3.43722C2.47891 30.6102 1.90868 31.6953 2.47099 32.4793C4.88655 35.869 8.8544 38.0787 13.3291 38.0787H51.2335C56.2151 38.0787 60.5077 34.3247 60.9195 29.3589C61.1175 26.9829 60.4364 24.7733 59.1692 23.0072C58.7257 22.3894 58.0129 22.033 57.2526 22.033L28.9629 22.0489ZM29.2876 11.8481C29.2876 10.9532 30.0242 10.2166 30.9191 10.2166C31.8141 10.2166 32.5506 10.9532 32.5506 11.8481C32.5506 12.743 31.8141 13.4796 30.9191 13.4796C30.0242 13.4796 29.2876 12.743 29.2876 11.8481ZM23.1814 22.0489C22.5557 22.0489 21.9618 21.7083 21.7083 21.1381C21.1777 19.9501 22.0489 18.7859 23.1814 18.7859C23.8071 18.7859 24.4011 19.1265 24.6545 19.6967C25.1851 20.8847 24.314 22.0489 23.1814 22.0489ZM41.1436 30.6182C40.518 30.6182 39.924 30.2776 39.6706 29.7074C39.1399 28.5194 40.0111 27.3552 41.1436 27.3552C41.7693 27.3552 42.3633 27.6957 42.6167 28.266C43.1474 29.4539 42.2762 30.6182 41.1436 30.6182ZM46.1569 30.6182C45.5312 30.6182 44.9373 30.2776 44.6838 29.7074C44.1532 28.5194 45.0244 27.3552 46.1569 27.3552C46.7826 27.3552 47.3766 27.6957 47.63 28.266C48.1606 29.4539 47.2895 30.6182 46.1569 30.6182Z" fill="#49B6BB"/>
</svg>