<?xml version="1.0" encoding="utf-8"?>
<!-- Generator: Adobe Illustrator 24.0.1, SVG Export Plug-In . SVG Version: 6.00 Build 0)  -->
<svg version="1.1" id="Camada_1" xmlns="http://www.w3.org/2000/svg" xmlns:xlink="http://www.w3.org/1999/xlink" x="0px" y="0px"
	 viewBox="0 0 1796.9 360" style="enable-background:new 0 0 1796.9 360;" xml:space="preserve">
<style type="text/css">
	.st0{fill:#363C44;}
	.st1{fill:#28B8EA;}
</style>
<path class="st0" d="M270,353.9h-7.4l20.7-47.8h6.1l20.5,47.8h-7.6l-4.9-11.8h-22.7L270,353.9z M277.1,336.3H295l-8.9-22.4
	L277.1,336.3z"/>
<g>
	<path class="st0" d="M366.8,314.9c-0.9-1.3-2.2-2.4-3.9-3.2c-1.6-0.8-3.4-1.3-5.5-1.3c-1.1,0-2.2,0.1-3.3,0.4
		c-1.1,0.3-2.1,0.8-3,1.4c-0.9,0.7-1.6,1.5-2.2,2.4c-0.6,1-0.8,2.1-0.8,3.5c0,1.3,0.3,2.4,0.8,3.3c0.5,0.9,1.2,1.6,2.1,2.2
		c0.9,0.6,1.9,1.1,3.1,1.5s2.5,0.9,3.8,1.3c1.6,0.5,3.3,1.1,4.9,1.7c1.7,0.6,3.2,1.5,4.5,2.5c1.4,1,2.5,2.3,3.3,3.9
		c0.9,1.6,1.3,3.5,1.3,5.9c0,2.5-0.5,4.6-1.4,6.4c-0.9,1.8-2.2,3.3-3.7,4.5c-1.5,1.2-3.3,2.1-5.3,2.7c-2,0.6-4.1,0.9-6.2,0.9
		c-3,0-5.9-0.6-8.8-1.8c-2.8-1.2-5.1-2.9-7-5.2l5.2-4.4c1.1,1.7,2.6,3,4.5,4.1c1.9,1,3.9,1.6,6.1,1.6c1.1,0,2.3-0.2,3.4-0.5
		c1.1-0.3,2.2-0.8,3.1-1.5c0.9-0.7,1.7-1.5,2.3-2.5c0.6-1,0.9-2.2,0.9-3.7c0-1.4-0.3-2.6-0.9-3.6c-0.6-1-1.4-1.8-2.5-2.5
		c-1-0.7-2.2-1.3-3.6-1.7c-1.4-0.5-2.8-1-4.4-1.5c-1.5-0.4-3-1-4.5-1.7c-1.5-0.6-2.8-1.5-4-2.5c-1.2-1-2.1-2.3-2.8-3.8
		c-0.7-1.5-1.1-3.3-1.1-5.5c0-2.4,0.5-4.4,1.5-6.1c1-1.7,2.2-3.1,3.8-4.3c1.6-1.1,3.3-1.9,5.3-2.5c2-0.5,3.9-0.8,5.9-0.8
		c2.8,0,5.4,0.5,7.8,1.5c2.4,1,4.4,2.3,5.9,4L366.8,314.9z"/>
	<path class="st0" d="M432.3,314.9c-0.9-1.3-2.2-2.4-3.9-3.2c-1.6-0.8-3.4-1.3-5.5-1.3c-1.1,0-2.2,0.1-3.3,0.4
		c-1.1,0.3-2.1,0.8-3,1.4c-0.9,0.7-1.6,1.5-2.2,2.4c-0.6,1-0.8,2.1-0.8,3.5c0,1.3,0.3,2.4,0.8,3.3c0.5,0.9,1.2,1.6,2.1,2.2
		c0.9,0.6,1.9,1.1,3.1,1.5c1.2,0.4,2.5,0.9,3.8,1.3c1.6,0.5,3.3,1.1,4.9,1.7c1.7,0.6,3.2,1.5,4.5,2.5c1.4,1,2.5,2.3,3.3,3.9
		c0.9,1.6,1.3,3.5,1.3,5.9c0,2.5-0.5,4.6-1.4,6.4c-0.9,1.8-2.2,3.3-3.7,4.5c-1.5,1.2-3.3,2.1-5.3,2.7c-2,0.6-4.1,0.9-6.2,0.9
		c-3,0-5.9-0.6-8.8-1.8c-2.8-1.2-5.1-2.9-7-5.2l5.2-4.4c1.1,1.7,2.6,3,4.5,4.1c1.9,1,3.9,1.6,6.1,1.6c1.1,0,2.3-0.2,3.4-0.5
		c1.1-0.3,2.2-0.8,3.1-1.5c0.9-0.7,1.7-1.5,2.3-2.5c0.6-1,0.9-2.2,0.9-3.7c0-1.4-0.3-2.6-0.9-3.6c-0.6-1-1.4-1.8-2.5-2.5
		c-1-0.7-2.2-1.3-3.6-1.7c-1.4-0.5-2.8-1-4.4-1.5c-1.5-0.4-3-1-4.5-1.7c-1.5-0.6-2.8-1.5-4-2.5c-1.2-1-2.1-2.3-2.8-3.8
		c-0.7-1.5-1.1-3.3-1.1-5.5c0-2.4,0.5-4.4,1.5-6.1c1-1.7,2.2-3.1,3.8-4.3c1.6-1.1,3.3-1.9,5.3-2.5c2-0.5,3.9-0.8,5.9-0.8
		c2.8,0,5.4,0.5,7.8,1.5c2.4,1,4.4,2.3,5.9,4L432.3,314.9z"/>
	<polygon class="st0" points="480.7,348 505.7,348 505.7,353.9 474,353.9 474,306.1 504.6,306.1 504.6,312 480.7,312 480.7,326.3 
		503.2,326.3 503.2,332 480.7,332 	"/>
	<path class="st0" d="M565.4,314.9c-0.9-1.3-2.2-2.4-3.9-3.2c-1.6-0.8-3.4-1.3-5.5-1.3c-1.1,0-2.2,0.1-3.3,0.4
		c-1.1,0.3-2.1,0.8-3,1.4c-0.9,0.7-1.6,1.5-2.2,2.4c-0.6,1-0.8,2.1-0.8,3.5c0,1.3,0.3,2.4,0.8,3.3c0.5,0.9,1.2,1.6,2.1,2.2
		c0.9,0.6,1.9,1.1,3.1,1.5c1.2,0.4,2.5,0.9,3.8,1.3c1.6,0.5,3.3,1.1,4.9,1.7c1.7,0.6,3.2,1.5,4.5,2.5c1.4,1,2.5,2.3,3.3,3.9
		c0.9,1.6,1.3,3.5,1.3,5.9c0,2.5-0.5,4.6-1.4,6.4c-0.9,1.8-2.2,3.3-3.7,4.5c-1.5,1.2-3.3,2.1-5.3,2.7c-2,0.6-4.1,0.9-6.2,0.9
		c-3,0-5.9-0.6-8.8-1.8c-2.8-1.2-5.1-2.9-7-5.2l5.2-4.4c1.1,1.7,2.6,3,4.5,4.1c1.9,1,3.9,1.6,6.1,1.6c1.1,0,2.3-0.2,3.4-0.5
		c1.1-0.3,2.2-0.8,3.1-1.5c0.9-0.7,1.7-1.5,2.3-2.5c0.6-1,0.9-2.2,0.9-3.7c0-1.4-0.3-2.6-0.9-3.6c-0.6-1-1.4-1.8-2.5-2.5
		c-1-0.7-2.2-1.3-3.6-1.7c-1.4-0.5-2.8-1-4.4-1.5c-1.5-0.4-3-1-4.5-1.7c-1.5-0.6-2.8-1.5-4-2.5c-1.2-1-2.1-2.3-2.8-3.8
		c-0.7-1.5-1.1-3.3-1.1-5.5c0-2.4,0.5-4.4,1.5-6.1c1-1.7,2.2-3.1,3.8-4.3c1.6-1.1,3.3-1.9,5.3-2.5c2-0.5,3.9-0.8,5.9-0.8
		c2.8,0,5.4,0.5,7.8,1.5c2.4,1,4.4,2.3,5.9,4L565.4,314.9z"/>
	<path class="st0" d="M630.8,314.9c-0.9-1.3-2.2-2.4-3.9-3.2c-1.6-0.8-3.4-1.3-5.5-1.3c-1.1,0-2.2,0.1-3.3,0.4
		c-1.1,0.3-2.1,0.8-3,1.4c-0.9,0.7-1.6,1.5-2.2,2.4c-0.6,1-0.8,2.1-0.8,3.5c0,1.3,0.3,2.4,0.8,3.3c0.5,0.9,1.2,1.6,2.1,2.2
		c0.9,0.6,1.9,1.1,3.1,1.5c1.2,0.4,2.5,0.9,3.8,1.3c1.6,0.5,3.3,1.1,4.9,1.7c1.7,0.6,3.2,1.5,4.5,2.5c1.4,1,2.5,2.3,3.3,3.9
		c0.9,1.6,1.3,3.5,1.3,5.9c0,2.5-0.5,4.6-1.4,6.4c-0.9,1.8-2.2,3.3-3.7,4.5c-1.5,1.2-3.3,2.1-5.3,2.7c-2,0.6-4.1,0.9-6.2,0.9
		c-3,0-5.9-0.6-8.8-1.8c-2.8-1.2-5.1-2.9-7-5.2l5.2-4.4c1.1,1.7,2.6,3,4.5,4.1c1.9,1,3.9,1.6,6.1,1.6c1.1,0,2.3-0.2,3.4-0.5
		c1.1-0.3,2.2-0.8,3.1-1.5c0.9-0.7,1.7-1.5,2.3-2.5c0.6-1,0.9-2.2,0.9-3.7c0-1.4-0.3-2.6-0.9-3.6c-0.6-1-1.4-1.8-2.5-2.5
		c-1-0.7-2.2-1.3-3.6-1.7c-1.4-0.5-2.8-1-4.4-1.5c-1.5-0.4-3-1-4.5-1.7c-1.5-0.6-2.8-1.5-4-2.5c-1.2-1-2.1-2.3-2.8-3.8
		c-0.7-1.5-1.1-3.3-1.1-5.5c0-2.4,0.5-4.4,1.5-6.1c1-1.7,2.2-3.1,3.8-4.3c1.6-1.1,3.3-1.9,5.3-2.5c2-0.5,3.9-0.8,5.9-0.8
		c2.8,0,5.4,0.5,7.8,1.5c2.4,1,4.4,2.3,5.9,4L630.8,314.9z"/>
	<path class="st0" d="M720.8,329.9c0,3.7-0.6,7.1-1.9,10.2c-1.3,3.1-3,5.7-5.3,8c-2.3,2.2-4.9,4-8,5.2s-6.5,1.9-10.1,1.9
		c-3.7,0-7-0.6-10.1-1.9c-3.1-1.2-5.8-3-8-5.2c-2.3-2.2-4-4.9-5.3-8c-1.3-3.1-1.9-6.5-1.9-10.2c0-3.7,0.6-7.2,1.9-10.2
		c1.3-3.1,3-5.7,5.3-7.9c2.2-2.2,4.9-3.9,8-5.1c3.1-1.2,6.4-1.8,10.1-1.8c3.6,0,7,0.6,10.1,1.8s5.8,2.9,8,5.1c2.3,2.2,4,4.8,5.3,7.9
		C720.1,322.8,720.8,326.2,720.8,329.9 M713.5,329.9c0-2.6-0.4-5.1-1.3-7.4c-0.9-2.3-2.1-4.4-3.7-6.1c-1.6-1.8-3.5-3.1-5.7-4.2
		c-2.2-1-4.7-1.5-7.5-1.5c-2.8,0-5.2,0.5-7.5,1.5c-2.2,1-4.1,2.4-5.7,4.2c-1.5,1.8-2.8,3.8-3.6,6.1c-0.9,2.3-1.3,4.8-1.3,7.4
		c0,2.7,0.4,5.2,1.3,7.5c0.9,2.3,2.1,4.4,3.6,6.1c1.6,1.7,3.5,3.1,5.7,4.1c2.2,1,4.7,1.5,7.4,1.5c2.7,0,5.2-0.5,7.5-1.5
		c2.2-1,4.2-2.4,5.7-4.1c1.6-1.7,2.8-3.8,3.7-6.1C713.1,335.1,713.5,332.6,713.5,329.9"/>
	<path class="st0" d="M763.6,353.9h-6.7v-47.8h15.3c2.3,0,4.5,0.2,6.6,0.7c2.1,0.5,3.9,1.2,5.4,2.3c1.6,1,2.8,2.4,3.7,4.1
		c0.9,1.7,1.4,3.8,1.4,6.2c0,3.5-1.1,6.3-3.2,8.5c-2.2,2.2-5,3.5-8.4,4.1l13.4,22h-8.1l-12.2-21.3h-7.2V353.9z M763.6,327h7.7
		c1.6,0,3-0.1,4.4-0.4c1.4-0.3,2.5-0.7,3.5-1.3c1-0.6,1.8-1.4,2.4-2.4c0.6-1,0.9-2.2,0.9-3.6c0-1.4-0.3-2.6-0.9-3.6
		c-0.6-1-1.4-1.7-2.3-2.3c-1-0.6-2.1-1-3.4-1.3c-1.3-0.2-2.7-0.4-4.1-0.4h-8.2V327z"/>
	<rect x="825.4" y="306.1" class="st0" width="6.7" height="47.8"/>
	<path class="st0" d="M872.7,353.9h-7.4l20.7-47.8h6.1l20.5,47.8h-7.6l-4.9-11.8h-22.7L872.7,353.9z M879.9,336.3h17.9l-8.9-22.4
		L879.9,336.3z"/>
	<path class="st0" d="M1029.5,346.5c-1.9,2.6-4.3,4.6-7.4,6.2c-3,1.6-6.6,2.4-10.9,2.4c-3.6,0-7-0.6-10.1-1.9c-3.1-1.2-5.7-3-8-5.2
		c-2.2-2.2-4-4.9-5.2-8c-1.3-3.1-1.9-6.5-1.9-10.2c0-3.7,0.6-7.2,1.9-10.2c1.3-3.1,3.1-5.7,5.3-7.9c2.3-2.2,5-3.9,8.1-5.1
		c3.1-1.2,6.5-1.8,10.1-1.8c1.6,0,3.3,0.2,4.9,0.5c1.7,0.3,3.3,0.8,4.8,1.4c1.5,0.6,2.9,1.4,4.2,2.3c1.3,0.9,2.3,2,3.2,3.2l-5.3,4.1
		c-1.2-1.6-2.8-3-5-4c-2.1-1.1-4.4-1.6-6.9-1.6c-2.8,0-5.3,0.5-7.5,1.5c-2.2,1-4.1,2.4-5.7,4.2c-1.6,1.8-2.8,3.8-3.6,6.1
		c-0.9,2.3-1.3,4.8-1.3,7.4c0,2.7,0.4,5.2,1.2,7.6c0.8,2.3,2,4.4,3.6,6.1c1.6,1.7,3.4,3.1,5.7,4.1c2.2,1,4.7,1.5,7.5,1.5
		c2.7,0,5.2-0.5,7.4-1.6c2.2-1.1,4-2.7,5.5-4.7L1029.5,346.5z"/>
	<path class="st0" d="M1110.8,329.9c0,3.7-0.6,7.1-1.9,10.2c-1.3,3.1-3,5.7-5.3,8c-2.3,2.2-4.9,4-8,5.2c-3.1,1.2-6.5,1.9-10.1,1.9
		c-3.7,0-7-0.6-10.1-1.9c-3.1-1.2-5.8-3-8-5.2c-2.3-2.2-4-4.9-5.3-8c-1.3-3.1-1.9-6.5-1.9-10.2c0-3.7,0.6-7.2,1.9-10.2
		c1.3-3.1,3-5.7,5.3-7.9c2.2-2.2,4.9-3.9,8-5.1c3.1-1.2,6.4-1.8,10.1-1.8c3.6,0,7,0.6,10.1,1.8c3.1,1.2,5.8,2.9,8,5.1
		c2.3,2.2,4,4.8,5.3,7.9C1110.1,322.8,1110.8,326.2,1110.8,329.9 M1103.5,329.9c0-2.6-0.4-5.1-1.3-7.4c-0.9-2.3-2.1-4.4-3.7-6.1
		c-1.6-1.8-3.5-3.1-5.7-4.2c-2.2-1-4.7-1.5-7.5-1.5c-2.8,0-5.2,0.5-7.5,1.5c-2.2,1-4.1,2.4-5.7,4.2c-1.6,1.8-2.8,3.8-3.6,6.1
		c-0.9,2.3-1.3,4.8-1.3,7.4c0,2.7,0.4,5.2,1.3,7.5c0.9,2.3,2.1,4.4,3.6,6.1c1.6,1.7,3.5,3.1,5.7,4.1c2.2,1,4.7,1.5,7.4,1.5
		c2.7,0,5.2-0.5,7.5-1.5c2.2-1,4.2-2.4,5.7-4.1c1.6-1.7,2.8-3.8,3.7-6.1C1103.1,335.1,1103.5,332.6,1103.5,329.9"/>
	<polygon class="st0" points="1180.6,344.3 1180.8,344.3 1180.8,306.1 1187.5,306.1 1187.5,353.9 1179,353.9 1153.7,314.9 
		1153.6,314.9 1153.6,353.9 1146.9,353.9 1146.9,306.1 1155.6,306.1 	"/>
	<polygon class="st0" points="1242.8,353.9 1236.2,353.9 1236.2,312 1220.8,312 1220.8,306.1 1258.2,306.1 1258.2,312 1242.8,312 	
		"/>
	<path class="st0" d="M1289.5,353.9h-7.4l20.7-47.8h6.1l20.5,47.8h-7.6l-4.9-11.8h-22.7L1289.5,353.9z M1296.6,336.3h17.9l-8.9-22.4
		L1296.6,336.3z M1308.6,302.3h-5.1l6.7-9.7h7.7L1308.6,302.3z"/>
	<path class="st0" d="M1362.6,306.1h16.5c1.8,0,3.6,0.2,5.4,0.6c1.8,0.4,3.4,1.1,4.8,2c1.4,0.9,2.6,2.2,3.4,3.7
		c0.9,1.5,1.3,3.4,1.3,5.7c0,2.7-0.8,4.9-2.3,6.7c-1.5,1.8-3.6,3-6.1,3.7v0.1c1.5,0.2,3,0.6,4.3,1.2c1.3,0.6,2.4,1.4,3.4,2.4
		c0.9,1,1.7,2.2,2.2,3.5c0.5,1.4,0.8,2.9,0.8,4.5c0,2.3-0.5,4.3-1.4,6c-0.9,1.7-2.2,3.1-3.9,4.2c-1.6,1.1-3.5,1.9-5.7,2.5
		c-2.2,0.6-4.5,0.8-7,0.8h-15.7V306.1z M1369.2,326.3h8.7c1.3,0,2.5-0.1,3.6-0.4c1.1-0.3,2.1-0.7,3-1.4c0.9-0.6,1.5-1.4,2-2.3
		c0.5-0.9,0.7-2,0.7-3.3c0-2.6-0.9-4.4-2.8-5.5c-1.9-1.1-4.4-1.7-7.6-1.7h-7.6V326.3z M1369.2,348.2h8.4c1.4,0,2.8-0.1,4.2-0.4
		c1.4-0.2,2.7-0.7,3.8-1.3c1.2-0.6,2.1-1.5,2.8-2.5c0.7-1.1,1-2.4,1-4c0-2.8-1-4.9-2.9-6.2c-1.9-1.3-4.7-1.9-8.4-1.9h-9V348.2z"/>
	<rect x="1432.9" y="306.1" class="st0" width="6.7" height="47.8"/>
	<polygon class="st0" points="1485,348 1506.3,348 1506.3,353.9 1478.3,353.9 1478.3,306.1 1485,306.1 	"/>
	<polygon class="st1" points="1794.4,160.1 1794.4,68.5 1702.8,68.5 	"/>
	<path class="st0" d="M2.6,126.6c0-73.3,52-121.8,129.8-121.8c39.1,0,72,11.9,96.2,38.1l-35.5,36.5c-11.9-16.8-33.9-27.8-60.4-27.8
		c-43,0-71.4,30.4-71.4,75.6c0,45.9,29.4,76.2,72.7,76.2c30.7,0,50.1-13.6,64.6-36.2l38.1,34.2c-24.2,32.3-59.4,48.8-104,48.8
		C55.2,250.3,2.6,200.6,2.6,126.6"/>
	<path class="st0" d="M249.7,158.9c0-54.6,38.8-91.1,96.9-91.1c57.2,0,95.9,36.5,95.9,91.1c0,54.9-38.8,91.4-95.9,91.4
		C288.4,250.3,249.7,213.8,249.7,158.9 M385.7,158.9c0-26.5-15.8-44.2-39.4-44.2c-23.9,0-39.7,17.8-39.7,44.2
		c0,26.5,15.8,44.2,39.7,44.2C369.8,203.2,385.7,185.4,385.7,158.9"/>
	<path class="st0" d="M649.9,136.7v110.5H595V145.1c0-18.4-13.2-30.4-33.3-30.4c-20.4,0-33.6,12-33.6,30.4v102.1h-54.9v-176h53
		l0.6,19.7c13.9-15.5,33.6-22.9,54.3-22.9C622.4,67.9,649.9,95.3,649.9,136.7"/>
	<path class="st0" d="M789.8,197.7v43.9c-13.9,6.1-30.7,8.7-45.9,8.7c-34.2,0-57.5-23.6-57.5-58.8V19.4h54.9v51.7h45.9V116h-45.9v64
		c0,13.9,8.4,23.3,20.4,23.3C771.1,203.2,780.4,201.6,789.8,197.7"/>
	<path class="st0" d="M934.5,67.9l-3.6,50.4c-33.6,0-57.2,15.5-57.2,38.4v90.4h-54.9v-176h53l1,21.3
		C886.7,76.9,908.3,67.9,934.5,67.9"/>
	<path class="st0" d="M1133.5,71.1v176h-52.6l-1-21.6c-11.9,15.8-29.7,24.9-53.6,24.9c-46.5,0-84-35.8-84-90.4
		c0-54.9,37.5-92.1,84-92.1c23.9,0,41.7,9,53.6,25.2l1-22H1133.5z M1078.6,158.9c0-26.2-15.8-44.2-39.7-44.2
		c-23.9,0-39.7,18.1-39.7,44.6c0,26.2,15.8,43.9,39.7,43.9C1062.8,203.2,1078.6,185.7,1078.6,158.9"/>
	<path class="st0" d="M1275.3,197.7v43.9c-13.9,6.1-30.7,8.7-45.9,8.7c-34.2,0-57.5-23.6-57.5-58.8V19.4h54.9v51.7h45.9V116h-45.9
		v64c0,13.9,8.4,23.3,20.4,23.3C1256.6,203.2,1266,201.6,1275.3,197.7"/>
	<path class="st0" d="M1302.2,175.4V71.1h54.9v102.1c0,18.1,12,30,29.7,30c17.8,0,29.7-11.9,29.7-30V71.1h54.9v104.3
		c0,44.9-33.9,74.9-84.6,74.9C1336.1,250.3,1302.2,220.3,1302.2,175.4"/>
	<path class="st0" d="M1501.8,228.4l20.7-33.3c17.4,9.4,33.6,12.6,50.4,12.6c11.6,0,20-3.9,20-11.3c0-7.8-10.7-11.6-26.5-15.8
		l-12.6-3.2c-30.7-7.4-51.7-19.1-51.7-47.8c0-37.1,29.1-61.7,73-61.7c28.1,0,52,6.1,69.8,18.4l-22.9,35.5c-13.9-7.4-28.1-11-43.3-11
		c-12.3,0-20.7,3.5-20.7,10c0,7.1,9.7,10.7,22.9,14.2l12.3,3.2c32,8.1,55.6,22.3,55.6,54.3c0,34.9-31,57.8-76.9,57.8
		C1544.1,250.3,1519.5,243.2,1501.8,228.4"/>
</g>
</svg>
